<svg version="1.1" xmlns="http://www.w3.org/2000/svg" xmlns:xlink="http://www.w3.org/1999/xlink" width="512px" height="512px" viewBox="0,0,256,256"><g fill="#151515" fill-rule="nonzero" stroke="none" stroke-width="1" stroke-linecap="butt" stroke-linejoin="miter" stroke-miterlimit="10" stroke-dasharray="" stroke-dashoffset="0" font-family="none" font-weight="none" font-size="none" text-anchor="none" style="mix-blend-mode: normal"><path d="M0,256v-256h256v256z" id="bgRectangle"></path></g><g fill="#ffffff" fill-rule="nonzero" stroke="none" stroke-width="1" stroke-linecap="butt" stroke-linejoin="miter" stroke-miterlimit="10" stroke-dasharray="" stroke-dashoffset="0" font-family="none" font-weight="none" font-size="none" text-anchor="none" style="mix-blend-mode: normal"><g transform="translate(0.00031,-0.00032) scale(0.5,0.5)"><path d="M341.65,351.2c-0.02,0.05 -7.42,18.52 -27.28,9.86c-10.78,-4.72 -77.94,-59.44 -92.96,-70.94c29.25,-26.3 58.51,-52.6 87.75,-78.93l-109.82,69.74c-17.96,-6.05 -35.95,-12.06 -53.9,-18.15c-16,-5.14 -17.84,-22.95 0.06,-29.73l208.54,-81.82c2,-0.85 25.21,-9.68 25.21,10.96zM330.56,347.05l36.84,-185.76c-0.62,-2.75 -8.86,0.83 -8.89,0.84l-209.02,81.98c-6.53,2.17 -6.69,5.23 -0.18,7.55l48.43,16.31l130.36,-82.76c4.44,-2.7 11.12,-4.61 14.99,0.04c3.91,4.71 0.63,10.5 -3.18,14.05c-3.76,3.51 -77.51,69.83 -100.06,90.1l79.85,61.12c7,2.71 10.09,-1.99 10.86,-3.47z"></path></g></g></svg>